<svg xmlns="http://www.w3.org/2000/svg" viewBox="0 0 40 30" role="img" aria-label="United Kingdom flag">
  <rect width="40" height="30" fill="#012169"/>
  <polygon points="0,0 4,0 40,24 40,30 36,30 0,6" fill="#FFFFFF"/>
  <polygon points="40,0 36,0 0,24 0,30 4,30 40,6" fill="#FFFFFF"/>
  <polygon points="0,0 2.4,0 40,25.2 40,30 37.6,30 0,4.8" fill="#C8102E"/>
  <polygon points="40,0 37.6,0 0,25.2 0,30 2.4,30 40,4.8" fill="#C8102E"/>
  <rect x="16" width="8" height="30" fill="#FFFFFF"/>
  <rect y="11" width="40" height="8" fill="#FFFFFF"/>
  <rect x="17.5" width="5" height="30" fill="#C8102E"/>
  <rect y="12.5" width="40" height="5" fill="#C8102E"/>
</svg>
